PathFileType	4	(X/Y/Z)	C:\Users\Basilio\Documents\Thesis Gigler\squatting_fais\c3dfiles\047\SJ_pre3\markers_experimental.trc
DataRate	CameraRate	NumFrames	NumMarkers	Units	OrigDataRate	OrigDataStartFrame	OrigNumFrames
200.000000	200.000000	4	60	mm	200.000000	428	1714
Frame#	Time	FHD			LBHD			RBHD			C7			T10			CLAV			LSHO			LUUPA			LMUPA			LDUPA			LLEP			LMEP			LRAD			LUL			LRFIN			RSHO			RUPA1			RMUPA			RDUPA			RLEP			RMEP			RRAD			RUL			RUFIN			LASI			RASI			USACR			LSACR			RSACR			LTHI1			LTHI2			LTHI3			LTHI4			LLFC			LMFC			LTIB1			LTIB2			LTIB3			LTIB4			LLMAL			LMMAL			LMT1			LMT2			LMT5			RTHI			RTHI2			RTHI3			RTHI4			RLFC			RMFC			RTIB1			RTIB2			RTIB3			RTIB4			RLMAL			RMMAL			RHEE			RMT1			RMT2			RMT5			
		X1	Y1	Z1	X2	Y2	Z2	X3	Y3	Z3	X4	Y4	Z4	X5	Y5	Z5	X6	Y6	Z6	X7	Y7	Z7	X8	Y8	Z8	X9	Y9	Z9	X10	Y10	Z10	X11	Y11	Z11	X12	Y12	Z12	X13	Y13	Z13	X14	Y14	Z14	X15	Y15	Z15	X16	Y16	Z16	X17	Y17	Z17	X18	Y18	Z18	X19	Y19	Z19	X20	Y20	Z20	X21	Y21	Z21	X22	Y22	Z22	X23	Y23	Z23	X24	Y24	Z24	X25	Y25	Z25	X26	Y26	Z26	X27	Y27	Z27	X28	Y28	Z28	X29	Y29	Z29	X30	Y30	Z30	X31	Y31	Z31	X32	Y32	Z32	X33	Y33	Z33	X34	Y34	Z34	X35	Y35	Z35	X36	Y36	Z36	X37	Y37	Z37	X38	Y38	Z38	X39	Y39	Z39	X40	Y40	Z40	X41	Y41	Z41	X42	Y42	Z42	X43	Y43	Z43	X44	Y44	Z44	X45	Y45	Z45	X46	Y46	Z46	X47	Y47	Z47	X48	Y48	Z48	X49	Y49	Z49	X50	Y50	Z50	X51	Y51	Z51	X52	Y52	Z52	X53	Y53	Z53	X54	Y54	Z54	X55	Y55	Z55	X56	Y56	Z56	X57	Y57	Z57	X58	Y58	Z58	X59	Y59	Z59	X60	Y60	Z60	

429	2.14	-66.9389114379883	1635.097412109375	-884.194763183594	-227.5854492187501	1669.137573242188	-963.6204833984377	-248.4447021484376	1676.272094726563	-816.4014282226565	-349.9077148437501	1501.94921875	-887.1021118164065	-391.4304199218751	1177.5966796875	-885.2828369140627	-199.0391540527344	1432.910766601563	-892.9691162109377	-272.5576171875001	1468.548583984375	-1066.900634765625	-383.5044555664063	1351.522827148438	-1187.5341796875	-344.4730224609376	1326.7958984375	-1210.147094726563	-393.9953918457032	1297.177124023438	-1230.272827148438	-382.1654663085938	1233.185668945313	-1266.064575195313	-437.0640258789064	1202.894287109375	-1189.58251953125	-273.9701538085938	1080.112670898438	-1092.180419921875	-235.5288391113282	1047.427001953125	-1151.725463867188	-214.6801300048829	1073.16748046875	-1053.779541015625	-268.3160095214844	1481.077514648438	-722.5380249023439	-378.8706359863282	1362.774780273438	-587.5900878906251	-343.5455322265626	1333.480712890625	-568.9187011718751	-392.1313476562501	1307.184204101563	-546.0660400390626	-380.8487243652344	1238.685668945313	-515.5078125000001	-440.1523742675782	1209.330200195313	-580.4709472656251	-258.9754333496094	1097.34814453125	-688.7742919921876	-233.7757110595704	1059.259643554688	-629.5269165039064	-203.1304321289063	1075.991455078125	-724.5852661132814	-214.6330718994141	952.5964355468752	-1004.237976074219	-214.171859741211	953.281433105469	-772.0821533203127	-393.9598999023439	1040.543212890625	-891.0323486328127	-400.393035888672	1010.511596679688	-920.005798339844	-396.6441650390626	1008.590576171875	-862.050720214844	-320.8823547363282	813.4331054687502	-1089.004272460938	-292.2506103515626	735.1056518554689	-1102.5986328125	-243.3596801757813	733.9688720703126	-1093.529174804688	-324.4386291503907	683.1578979492189	-1102.242797851563	-357.4762878417969	509.5065002441407	-1088.420532226563	-306.3320922851563	478.9048461914064	-980.490905761719	-312.3186035156251	312.1366271972657	-1042.356079101563	-339.4970092773438	280.7631835937501	-1120.296264648438	-312.3992919921876	271.3774108886719	-1083.586669921875	-318.9759826660157	189.2203979492188	-1066.903564453125	-375.8931884765626	96.09307861328128	-1122.696533203125	-337.8854980468751	100.319091796875	-1039.994995117188	-213.6832885742188	63.71147918701173	-1093.718017578125	-224.1802978515626	63.23010253906251	-1136.655395507813	-271.1018676757813	43.38632202148438	-1175.238525390625	-333.4826049804688	784.9082641601565	-689.2396240234376	-303.3882446289063	726.6746826171876	-676.2715454101564	-269.8648681640626	724.9311523437501	-680.4949340820314	-336.9267578125001	649.7355346679689	-685.5349121093751	-348.2852783203126	498.7869262695314	-697.0217895507814	-310.3037109375001	480.3769836425782	-810.277770996094	-313.9781494140626	372.9700622558594	-702.6007690429689	-378.9098205566407	291.2153930664063	-671.6346435546876	-332.6515502929688	292.1953125000001	-678.2153930664064	-316.4161987304688	242.5900268554688	-707.9981689453126	-377.5074768066407	90.34816741943361	-684.7469482421876	-334.6525878906251	104.0264511108399	-766.9447021484376	-420.5405273437501	51.67032623291017	-744.6405029296876	-209.2159576416016	55.3868980407715	-716.5958862304689	-217.8044891357422	59.25083160400392	-671.0020141601564	-273.7948913574219	30.36873817443848	-625.4115600585939	
430	2.145	-67.27964782714845	1635.455932617188	-884.1231689453127	-227.8865661621094	1669.216430664063	-963.6240844726565	-248.6563720703126	1676.364013671875	-816.2917480468752	-350.0323181152344	1502	-886.9924316406252	-391.4513549804689	1177.642333984375	-885.2098388671877	-198.832992553711	1433.350341796875	-892.9403076171877	-272.7334899902344	1468.803466796875	-1066.842163085938	-383.6537475585938	1351.669677734375	-1187.470092773438	-344.6190185546876	1326.987548828125	-1210.073364257813	-394.1500244140626	1297.276733398438	-1230.206787109375	-382.2350158691407	1233.309692382813	-1266.023071289063	-437.0867004394532	1203.080322265625	-1189.48876953125	-273.8878784179688	1080.255004882813	-1092.214111328125	-235.598129272461	1047.531494140625	-1151.783935546875	-214.4623107910157	1073.312866210938	-1053.907348632813	-268.1986999511719	1481.350341796875	-722.5042114257814	-378.7947692871094	1362.870727539063	-587.4508056640626	-343.4197082519532	1333.635009765625	-568.8579101562501	-392.0549926757814	1307.310180664063	-545.8558349609376	-380.6531066894532	1238.8466796875	-515.4685668945314	-440.141815185547	1209.430908203125	-580.4691162109376	-258.9417724609376	1097.48974609375	-688.7564086914064	-233.6631469726563	1059.334106445313	-629.4450073242189	-203.0876464843751	1076.029174804688	-724.4987182617189	-214.7454071044922	952.633483886719	-1004.2783203125	-214.1243743896485	953.2799072265627	-772.067077636719	-394.0184020996095	1040.605224609375	-890.9558715820315	-400.3650512695314	1010.529235839844	-919.9658813476565	-396.5734863281251	1008.633911132813	-861.970153808594	-320.9081420898438	813.423767089844	-1089.026245117188	-292.4441833496094	735.1019897460939	-1102.546875	-243.3113861083985	733.8931274414064	-1093.511352539063	-324.6188659667969	683.1439819335939	-1102.158813476563	-357.5689392089844	509.5158996582032	-1088.357177734375	-306.3194885253907	478.9919433593751	-980.4680175781252	-312.3024902343751	312.1743164062501	-1042.35791015625	-340.6027526855469	280.5435485839844	-1119.370239257813	-312.3989562988282	271.3861694335938	-1083.561767578125	-318.9779052734376	189.2071228027344	-1066.8837890625	-375.8847351074219	96.08609771728518	-1122.736083984375	-337.8606567382813	100.3069152832032	-1040.033935546875	-213.7103881835938	63.68259811401369	-1093.745361328125	-224.1806030273438	63.25719833374025	-1136.62158203125	-271.0315246582032	43.40776443481446	-1175.276123046875	-333.3619079589844	784.9080200195315	-689.2387084960939	-303.2199401855469	726.7043457031251	-676.2944335937501	-269.8075561523438	724.9346923828126	-680.4849243164064	-336.8680419921876	649.6451416015626	-685.5327148437501	-348.2537536621094	498.7556457519532	-697.0115356445314	-310.2639160156251	480.3851928710939	-810.2127075195315	-313.9795227050782	372.9074707031251	-702.5770263671876	-378.9039916992188	291.2199096679688	-671.5869140625001	-332.6543273925782	292.1526184082032	-678.1791381835939	-316.4403076171876	242.8194885253907	-707.7516479492189	-377.5360107421876	90.38006591796876	-684.7780151367189	-334.6525268554688	104.0279235839844	-766.9389038085939	-420.5697631835939	51.68473052978517	-744.6631469726564	-209.1702880859376	55.46133422851564	-716.6489868164064	-217.8459777832032	59.25734329223634	-670.9801635742189	-273.7995605468751	30.3523120880127	-625.4130249023439	
431	2.15	-67.45973968505861	1635.588745117188	-884.101989746094	-228.2250976562501	1669.261596679688	-963.586608886719	-248.7468872070313	1676.48095703125	-816.4112548828127	-350.1019287109376	1502.026733398438	-886.8775024414065	-391.4252014160157	1177.675048828125	-885.153747558594	-198.8905181884766	1433.625244140625	-892.949401855469	-273.3703613281251	1469.05322265625	-1066.58203125	-383.6940307617188	1351.795166015625	-1187.386962890625	-344.5435791015626	1327.18408203125	-1210.129150390625	-394.2404174804689	1297.394165039063	-1230.12548828125	-382.2650756835938	1233.421020507813	-1265.983154296875	-437.076385498047	1203.162719726563	-1189.42236328125	-273.8788452148438	1080.40869140625	-1092.216674804688	-235.5295562744141	1047.752197265625	-1151.827026367188	-214.5760498046876	1073.436645507813	-1053.932495117188	-268.1236267089844	1481.557373046875	-722.3163452148439	-378.7293395996094	1362.982543945313	-587.4093017578126	-343.3559570312501	1333.74658203125	-568.7408447265626	-391.9993591308595	1307.481201171875	-545.8925781250001	-380.6031188964844	1239.028198242188	-515.3322143554689	-439.9759521484376	1209.603759765625	-580.3435058593751	-258.6710815429688	1097.569580078125	-688.6753540039064	-233.5386657714844	1059.51708984375	-629.4371948242189	-202.9346618652344	1076.129760742188	-724.4830932617189	-215.0804748535157	952.5930175781252	-1003.953918457031	-214.1600799560547	953.3305664062502	-772.1260986328127	-394.0167846679689	1040.58203125	-890.9401855468752	-400.3692626953126	1010.536499023438	-919.946472167969	-396.6418457031251	1008.710693359375	-861.9309082031252	-321.0834045410157	813.4197387695315	-1089.0205078125	-292.5036926269532	735.1130981445314	-1102.541259765625	-243.3990020751954	733.9299316406251	-1093.50830078125	-324.7101135253907	683.1322021484376	-1102.103515625	-357.6144409179688	509.5030517578126	-1088.335327148438	-306.3045043945313	479.0023193359376	-980.4746704101565	-312.3805236816407	312.1929931640626	-1042.389526367188	-340.6565551757813	280.6060180664063	-1119.368774414063	-312.4299316406251	271.3925170898438	-1083.5888671875	-318.9651489257813	189.2825317382813	-1066.978271484375	-375.9084777832032	96.15527343750003	-1122.7177734375	-337.8307495117188	100.3402938842774	-1040.06005859375	-213.6391906738282	63.76868820190431	-1093.855224609375	-224.1919250488282	63.27942276000978	-1136.640258789063	-271.0709838867188	43.44397354125977	-1175.254028320313	-333.3284912109376	784.9074707031252	-689.1262207031251	-303.0205383300782	726.7497558593751	-676.1826782226564	-269.7560424804688	724.9174194335939	-680.4871215820314	-336.8251037597657	649.6245727539064	-685.4605102539064	-348.1863403320313	498.6871948242189	-697.0587158203126	-306.4891967773438	481.7155761718751	-812.5856933593752	-313.9006958007813	372.9793395996094	-702.5735473632814	-378.8723144531251	291.2374267578126	-671.5477294921876	-332.7224426269532	292.0043334960938	-677.9974365234376	-316.4423522949219	242.549789428711	-707.9877929687501	-377.5367126464844	90.46243286132814	-684.6841430664064	-334.6599731445313	104.0430145263672	-766.9155273437501	-420.5870971679689	51.61534500122072	-744.5806274414064	-209.267807006836	55.49305725097658	-716.6524658203126	-217.8361358642579	59.22763442993165	-670.9566650390626	-273.8054809570313	30.37871170043946	-625.3892822265626	
432	2.155	-67.70848846435548	1635.97216796875	-884.2792968750002	-228.4957122802735	1669.306274414063	-963.5603027343752	-248.8983306884766	1676.440063476563	-816.4275512695315	-350.2058410644532	1502.06591796875	-886.807067871094	-391.4457092285157	1177.778564453125	-885.0874023437502	-198.8441772460938	1433.800537109375	-892.8543701171877	-273.2492675781251	1469.12353515625	-1066.6337890625	-383.7809753417969	1351.971069335938	-1187.285766601563	-344.4649963378907	1327.320434570313	-1210.12255859375	-394.2310485839845	1297.547729492188	-1230.0830078125	-382.3220520019532	1233.653686523438	-1265.932861328125	-437.0892028808595	1203.305419921875	-1189.369750976563	-273.9049072265626	1080.476318359375	-1092.246459960938	-235.5644989013672	1047.847778320313	-1151.906494140625	-214.6199493408204	1073.490112304688	-1054.04541015625	-268.0603942871094	1481.843872070313	-722.2233886718751	-378.6920166015626	1363.172607421875	-587.1927490234376	-343.2526550292969	1333.895874023438	-568.5811767578126	-391.9322204589845	1307.5888671875	-545.7890625000001	-380.5484313964844	1239.146240234375	-515.2619018554689	-439.8448486328126	1209.737548828125	-580.1977539062501	-258.7762756347657	1097.6298828125	-688.5507202148439	-233.4030761718751	1059.652587890625	-629.3009643554689	-202.8134460449219	1076.219970703125	-724.3441772460939	-215.0896148681641	952.5784301757815	-1004.044860839844	-214.148910522461	953.3192138671877	-772.066833496094	-394.0255432128907	1040.676513671875	-890.856384277344	-400.366180419922	1010.545288085938	-919.9063720703127	-396.6864318847657	1008.775207519531	-861.854187011719	-321.2018737792969	813.3719482421877	-1089.017700195313	-292.6214904785157	735.1492309570314	-1102.5322265625	-243.7227325439454	733.8737182617189	-1093.416015625	-324.8648071289063	683.1340942382814	-1102.050659179688	-357.5840454101563	509.4778747558595	-1088.378540039063	-306.2513427734376	479.0316467285157	-980.5592041015627	-312.3870239257813	312.1820678710938	-1042.384643554688	-340.7290344238282	280.6887207031251	-1119.28564453125	-312.4346618652344	271.3798217773438	-1083.602294921875	-318.9720458984376	189.2429656982422	-1066.915893554688	-375.9127502441407	96.13824462890628	-1122.765502929688	-337.8518371582032	100.2908172607422	-1040.069091796875	-213.6845703125001	63.6940383911133	-1093.787231445313	-224.1856079101563	63.30250549316408	-1136.623168945313	-271.1064147949219	43.4187240600586	-1175.273315429688	-333.3113708496094	784.8543701171877	-689.0668945312501	-302.9530639648438	726.7243041992189	-676.2973632812501	-269.7217102050782	724.9210815429689	-680.4273681640626	-336.7091674804688	649.6367797851564	-685.3617553710939	-348.1776428222657	498.6870117187501	-696.9893798828126	-306.4646911621094	481.7002563476564	-812.592712402344	-313.8689270019532	372.9336547851563	-702.5356445312501	-378.8372497558594	291.2293395996094	-671.5078125000001	-332.6249084472657	292.0216369628907	-678.1393432617189	-316.4773559570313	242.5282135009766	-707.9473876953126	-377.5445251464844	90.40438842773439	-684.7549438476564	-334.6308288574219	104.0774002075196	-766.9316406250001	-420.7126464843751	51.63386535644533	-744.4780883789064	-209.1986389160157	55.455135345459	-716.6210937500001	-217.8529357910157	59.29053115844728	-670.9735717773439	-273.8036193847657	30.37057876586915	-625.3978881835939	
